<svg width="80" height="80" viewBox="0 0 80 80" fill="none" xmlns="http://www.w3.org/2000/svg">
<path fill-rule="evenodd" clip-rule="evenodd" d="M79.333 31.3484C79.3153 33.2015 79.2995 34.8534 79.6259 36.0185C80.399 38.7813 80.056 41.2156 77.8206 43.3907C75.0075 46.1277 74.2993 49.4837 75.9203 53.1804C76.5325 54.5757 76.7593 56.0236 76.6598 57.5384C76.5425 59.3069 75.4946 60.5581 73.7429 60.7548C72.7978 60.8609 71.7968 60.8307 70.8662 60.6386C66.0456 59.6432 61.8082 57.4044 57.9719 54.3746C57.784 54.2263 57.5972 54.0767 57.4122 53.9254L59.5843 53.9089L63 53.8831L59.3114 50.3784C56.6946 47.8919 55.5574 46.8731 55.3972 46.8715C55.2729 46.8703 53.9641 46.7636 52.4885 46.6342L49.8056 46.3989L46.1343 42.789L42.4629 39.179L42.4614 38.2962C42.4587 36.6422 41.9826 35.4429 40.9158 34.402C39.6367 33.1539 37.7738 32.6582 36.0353 33.1036C34.4394 33.5125 33.0346 34.8399 32.4875 36.456C31.5957 39.0905 33.3047 42.1127 36.0821 42.8125C36.7033 42.9691 38.1325 42.9742 38.4759 42.8211C38.5827 42.7735 39.6686 43.7817 42.2851 46.3581L45.945 49.9618L46.1989 52.8047L46.4526 55.6477L50.189 59.3238L53.9254 63V59.5673V57.415C54.0764 57.5996 54.2256 57.7858 54.3735 57.973C57.4033 61.8105 59.6421 66.0479 60.6375 70.8673C60.8285 71.7968 60.8598 72.7989 60.7536 73.744C60.557 75.4958 59.3047 76.5448 57.5373 76.6609C56.0224 76.7615 54.5746 76.5336 53.1793 75.9214C49.4826 74.3004 46.1266 75.0087 43.3896 77.8217C41.2155 80.056 38.7812 80.4001 36.0185 79.6259C34.8529 79.2995 33.2009 79.3153 31.3479 79.333C29.1605 79.3538 26.6929 79.3773 24.4145 78.8439C22.884 78.4853 21.6719 78.0116 20.6564 77.5044C8.30053 70.2797 0 56.8726 0 41.5261C0 30.0562 4.63623 19.6699 12.138 12.138C19.6699 4.63623 30.0562 0 41.5261 0C56.8715 0 70.2786 8.30053 77.5044 20.6564C78.0105 21.6719 78.4853 22.884 78.8439 24.4145C79.3773 26.6929 79.3538 29.1608 79.333 31.3484ZM40.9179 13.1874C52.6971 14.9593 61.5465 24.1538 62.6936 35.8124C62.815 37.0459 62.7403 40.0029 62.5535 41.364C62.4698 41.9732 62.2843 42.9879 62.1412 43.6187C61.7227 45.4636 60.6638 48.3932 60.4154 48.3932C60.3582 48.3932 59.4318 47.533 58.3566 46.4815L56.4017 44.5699L56.7 43.5405C57.4024 41.1155 57.5592 40.0556 57.5553 37.7565C57.553 36.4063 57.5017 35.5569 57.3805 34.8645C56.8059 31.5799 55.4892 28.5614 53.4893 25.9434C52.7124 24.9267 50.6067 22.8521 49.5896 22.1014C47.1955 20.3346 44.1994 18.9807 41.5159 18.453C34.6938 17.1114 27.948 19.0951 23.0925 23.8706C19.9214 26.9896 18.0078 30.6966 17.2909 35.1096C17.0637 36.5074 17.0637 39.3977 17.2909 40.7956C18.0078 45.2086 19.9214 48.9155 23.0925 52.0345C26.2681 55.1579 30.2619 57.1047 34.7381 57.7113C35.6465 57.8345 36.3896 57.8618 37.828 57.825C39.8032 57.7743 40.8873 57.6403 42.8428 57.205C43.4836 57.0625 44.0613 56.9404 44.1268 56.9339C44.2475 56.922 47.7472 60.5397 47.7437 60.673C47.7411 60.7712 46.3936 61.3499 45.3534 61.6994C44.1705 62.0969 42.3344 62.5271 40.9735 62.7255C39.5057 62.9395 35.4715 62.9658 34.14 62.7699C29.3992 62.0726 25.3261 60.3807 21.6309 57.5737C20.3857 56.6279 18.1115 54.3412 17.1315 53.0498C14.4584 49.5275 12.9364 46.0055 12.1961 41.6288C11.9346 40.0834 11.9346 35.8217 12.1961 34.2763C12.9364 29.8996 14.4584 26.3777 17.1315 22.8553C18.1115 21.5639 20.3857 19.2773 21.6309 18.3314C25.3262 15.5243 29.4091 13.8285 34.14 13.1358C35.5235 12.9332 39.4256 12.963 40.9179 13.1874ZM44.0697 24.478C48.7846 26.8072 51.9274 31.2405 52.5347 36.4185C52.6423 37.3365 52.5656 39.447 52.3856 40.5197C52.1424 41.9685 51.4513 44.1612 51.2243 44.2042C51.1475 44.2187 50.2123 43.3712 49.1458 42.3208L47.207 40.411L47.3278 39.4513C47.4989 38.0913 47.4765 37.0981 47.25 36.0073C46.4808 32.3025 43.7152 29.405 39.9194 28.3273C39.2169 28.1278 38.9138 28.1019 37.3296 28.1055C35.6634 28.1093 35.4715 28.1289 34.6384 28.379C32.3679 29.061 30.6227 30.2457 29.2729 32.0215C26.5941 35.546 26.5941 40.3591 29.2729 43.8836C30.6243 45.6616 32.3788 46.8517 34.6384 47.5233C35.4693 47.7702 35.6714 47.7904 37.3795 47.7975C38.3936 47.8016 39.3804 47.7724 39.5723 47.7325C39.9171 47.6608 39.9436 47.6806 41.8399 49.4285C42.8952 50.4012 43.7586 51.2558 43.7586 51.3276C43.7586 51.5809 41.474 52.4251 39.971 52.7271C38.6457 52.9934 35.7638 52.9656 34.3892 52.6733C27.9383 51.3013 23.2047 46.3811 22.2369 40.0415C22.0984 39.1339 22.0984 36.7713 22.2369 35.8637C22.9808 30.9914 25.9767 26.8702 30.4022 24.6315C31.7271 23.9613 32.9104 23.5462 34.3892 23.2325C35.7808 22.9374 38.621 22.9103 40.0707 23.1783C41.2456 23.3955 43.096 23.9969 44.0697 24.478Z" fill="#2fe48d"/>
</svg>
