<svg width="451" height="81" viewBox="0 0 451 81" fill="none" xmlns="http://www.w3.org/2000/svg">
<path d="M79.6259 36.5185C78.9143 33.9781 79.8292 29.1229 78.8439 24.9145C78.4853 23.384 78.0105 22.1719 77.5044 21.1564C70.2786 8.80053 56.8715 0.5 41.5261 0.5C30.0562 0.5 19.6699 5.13623 12.138 12.638C4.63623 20.1699 0 30.5562 0 42.0261C0 57.3726 8.30053 70.7797 20.6564 78.0044C21.6719 78.5116 22.884 78.9853 24.4145 79.3439C28.6229 80.3292 33.477 79.4143 36.0185 80.1259C38.7812 80.9001 41.2156 80.556 43.3896 78.3217C46.1266 75.5087 49.4826 74.8004 53.1793 76.4214C54.5746 77.0336 56.0225 77.2615 57.5373 77.1609C59.3047 77.0448 60.557 75.9957 60.7536 74.244C60.8598 73.2989 60.8285 72.2968 60.6375 71.3673C59.6421 66.5479 57.4033 62.3105 54.3735 58.473C53.0028 56.7381 51.5247 55.0947 49.5563 54.0066C48.0224 53.1587 46.7131 53.5162 46.073 55.1372C45.6194 56.2845 45.4664 57.5636 45.2899 58.7992C45.2105 59.3533 45.0318 59.6103 44.4989 59.693C40.5285 60.3063 36.7569 57.1995 36.6464 53.1978C36.6184 52.1934 36.6296 51.1869 36.6743 50.1837C36.7246 49.0509 36.2542 48.2208 35.4219 47.4801C33.6322 45.8882 31.8515 44.2806 30.1444 42.6015C29.5255 41.9926 29.1167 41.5815 28.9111 41.2374L28.91 41.2385C22.7142 35.1779 23.3945 23.8957 23.3945 23.8957C23.3945 23.8957 34.6779 23.2153 40.7374 29.4111L40.7363 29.4122C41.0804 29.6178 41.4926 30.0267 42.1003 30.6456C43.7794 32.3537 45.387 34.1334 46.979 35.9231C47.7197 36.7553 48.5497 37.2257 49.6825 37.1754C50.6858 37.1307 51.6923 37.1195 52.6967 37.1475C56.6983 37.2581 59.8052 41.0296 59.1918 45C59.1092 45.5329 58.8522 45.7117 58.2981 45.791C57.0625 45.9686 55.7834 46.1217 54.6361 46.5741C53.015 47.2142 52.6576 48.5236 53.5055 50.0574C54.5936 52.0259 56.2358 53.5039 57.9719 54.8746C61.8082 57.9044 66.0457 60.1432 70.8662 61.1386C71.7968 61.3307 72.7978 61.3609 73.7429 61.2548C75.4946 61.0581 76.5425 59.8069 76.6598 58.0384C76.7593 56.5236 76.5325 55.0757 75.9203 53.6804C74.2993 49.9837 75.0075 46.6277 77.8206 43.8907C80.056 41.7156 80.399 39.2812 79.6259 36.5185Z" fill="white"/>
<path d="M35.394 32.8475C34.5472 32.8475 33.7763 33.1682 33.1954 33.6955C32.6681 34.2764 32.3475 35.0484 32.3475 35.894C32.3475 37.7027 33.8143 39.1696 35.623 39.1696C36.4698 39.1696 37.2407 38.8489 37.8216 38.3216C38.3489 37.7407 38.6695 36.9688 38.6695 36.1231C38.6695 34.3144 37.2038 32.8475 35.394 32.8475Z" fill="white"/>
<path d="M118.666 64.0002L99.512 20.9952H107.991L123.424 57.1072H120.862L136.295 20.9952H144.469L125.315 64.0002H118.666ZM148.111 64.0002V33.1952H155.736V64.0002H148.111ZM147.684 27.4002V19.9582H156.163V27.4002H147.684ZM163.955 64.0002V41.0642C163.955 39.7629 163.914 38.4412 163.833 37.0992C163.792 35.7572 163.691 34.4559 163.528 33.1952H170.909L171.763 41.6132H170.543C170.95 39.5799 171.621 37.8922 172.556 36.5502C173.532 35.2082 174.711 34.2119 176.094 33.5612C177.477 32.9106 178.981 32.5852 180.608 32.5852C181.34 32.5852 181.93 32.6259 182.377 32.7072C182.824 32.7479 183.272 32.8496 183.719 33.0122L183.658 39.7222C182.885 39.3969 182.214 39.1936 181.645 39.1122C181.116 39.0309 180.445 38.9902 179.632 38.9902C177.883 38.9902 176.399 39.3562 175.179 40.0882C174 40.8202 173.105 41.8369 172.495 43.1382C171.926 44.4396 171.641 45.9239 171.641 47.5912V64.0002H163.955ZM202.867 64.6102C199.207 64.6102 196.442 63.6546 194.571 61.7432C192.7 59.8319 191.765 56.9649 191.765 53.1422V38.9292H185.848V33.1952H191.765V25.3262L199.39 23.3742V33.1952H207.625V38.9292H199.39V52.6542C199.39 54.7689 199.797 56.2532 200.61 57.1072C201.423 57.9612 202.542 58.3882 203.965 58.3882C204.738 58.3882 205.388 58.3272 205.917 58.2052C206.486 58.0832 207.035 57.9206 207.564 57.7172V63.7562C206.873 64.0409 206.1 64.2442 205.246 64.3662C204.433 64.5289 203.64 64.6102 202.867 64.6102ZM223.906 64.6102C220.124 64.6102 217.298 63.5732 215.427 61.4992C213.557 59.4252 212.621 56.2532 212.621 51.9832V33.1952H220.246V51.9222C220.246 54.1996 220.714 55.8872 221.649 56.9852C222.585 58.0426 224.008 58.5712 225.919 58.5712C228.075 58.5712 229.823 57.8392 231.165 56.3752C232.548 54.9112 233.239 52.9796 233.239 50.5802V33.1952H240.864V64.0002H233.422V57.7172H234.276C233.382 59.9132 232.019 61.6212 230.189 62.8412C228.4 64.0206 226.306 64.6102 223.906 64.6102Z" fill="white"/>
<path opacity="0.5" d="M248.294 64.0002V55.5212H256.834V64.0002H248.294ZM264.279 64.0002V19.1042H271.904V39.3562H271.05C271.985 37.1602 273.429 35.4929 275.381 34.3542C277.333 33.1749 279.57 32.5852 282.091 32.5852C285.751 32.5852 288.476 33.6222 290.265 35.6962C292.054 37.7296 292.949 40.8406 292.949 45.0292V64.0002H285.324V45.3952C285.324 42.9959 284.856 41.2676 283.921 40.2102C283.026 39.1122 281.583 38.5632 279.59 38.5632C277.272 38.5632 275.401 39.2952 273.978 40.7592C272.595 42.1826 271.904 44.0939 271.904 46.4932V64.0002H264.279ZM312.136 64.6102C308.354 64.6102 305.527 63.5732 303.657 61.4992C301.786 59.4252 300.851 56.2532 300.851 51.9832V33.1952H308.476V51.9222C308.476 54.1996 308.943 55.8872 309.879 56.9852C310.814 58.0426 312.237 58.5712 314.149 58.5712C316.304 58.5712 318.053 57.8392 319.395 56.3752C320.777 54.9112 321.469 52.9796 321.469 50.5802V33.1952H329.094V64.0002H321.652V57.7172H322.506C321.611 59.9132 320.249 61.6212 318.419 62.8412C316.629 64.0206 314.535 64.6102 312.136 64.6102ZM337.372 64.0002V40.8812C337.372 39.6206 337.331 38.3396 337.25 37.0382C337.168 35.7369 337.046 34.4559 336.884 33.1952H344.265L344.875 39.2952H344.143C345.119 37.1399 346.562 35.4929 348.474 34.3542C350.385 33.1749 352.601 32.5852 355.123 32.5852C358.742 32.5852 361.467 33.6019 363.297 35.6352C365.127 37.6686 366.042 40.8406 366.042 45.1512V64.0002H358.417V45.5172C358.417 43.0366 357.929 41.2676 356.953 40.2102C356.017 39.1122 354.594 38.5632 352.683 38.5632C350.324 38.5632 348.453 39.2952 347.071 40.7592C345.688 42.2232 344.997 44.1752 344.997 46.6152V64.0002H337.372ZM387.303 64.6102C383.643 64.6102 380.877 63.6546 379.007 61.7432C377.136 59.8319 376.201 56.9649 376.201 53.1422V38.9292H370.284V33.1952H376.201V25.3262L383.826 23.3742V33.1952H392.061V38.9292H383.826V52.6542C383.826 54.7689 384.232 56.2532 385.046 57.1072C385.859 57.9612 386.977 58.3882 388.401 58.3882C389.173 58.3882 389.824 58.3272 390.353 58.2052C390.922 58.0832 391.471 57.9206 392 57.7172V63.7562C391.308 64.0409 390.536 64.2442 389.682 64.3662C388.868 64.5289 388.075 64.6102 387.303 64.6102ZM411.826 64.6102C406.661 64.6102 402.615 63.1869 399.687 60.3402C396.759 57.4936 395.295 53.5896 395.295 48.6282C395.295 45.4156 395.925 42.6096 397.186 40.2102C398.447 37.8109 400.195 35.9402 402.432 34.5982C404.709 33.2562 407.353 32.5852 410.362 32.5852C413.331 32.5852 415.811 33.2156 417.804 34.4762C419.797 35.7369 421.301 37.5059 422.318 39.7832C423.375 42.0606 423.904 44.7242 423.904 47.7742V49.7872H401.456V45.7612H418.475L417.438 46.6152C417.438 43.7686 416.828 41.5929 415.608 40.0882C414.429 38.5836 412.7 37.8312 410.423 37.8312C407.902 37.8312 405.95 38.7259 404.567 40.5152C403.225 42.3046 402.554 44.8056 402.554 48.0182V48.8112C402.554 52.1459 403.367 54.6469 404.994 56.3142C406.661 57.9409 409 58.7542 412.009 58.7542C413.758 58.7542 415.384 58.5306 416.889 58.0832C418.434 57.5952 419.898 56.8226 421.281 55.7652L423.538 60.8892C422.074 62.0686 420.325 62.9836 418.292 63.6342C416.259 64.2849 414.103 64.6102 411.826 64.6102ZM430.3 64.0002V41.0642C430.3 39.7629 430.259 38.4412 430.178 37.0992C430.137 35.7572 430.036 34.4559 429.873 33.1952H437.254L438.108 41.6132H436.888C437.295 39.5799 437.966 37.8922 438.901 36.5502C439.877 35.2082 441.056 34.2119 442.439 33.5612C443.822 32.9106 445.326 32.5852 446.953 32.5852C447.685 32.5852 448.275 32.6259 448.722 32.7072C449.169 32.7479 449.617 32.8496 450.064 33.0122L450.003 39.7222C449.23 39.3969 448.559 39.1936 447.99 39.1122C447.461 39.0309 446.79 38.9902 445.977 38.9902C444.228 38.9902 442.744 39.3562 441.524 40.0882C440.345 40.8202 439.45 41.8369 438.84 43.1382C438.271 44.4396 437.986 45.9239 437.986 47.5912V64.0002H430.3Z" fill="white"/>
</svg>
