<svg width="451" height="80" viewBox="0 0 451 80" fill="none" xmlns="http://www.w3.org/2000/svg">
<path fill-rule="evenodd" clip-rule="evenodd" d="M79.333 31.3484C79.3153 33.2015 79.2995 34.8534 79.6259 36.0185C80.399 38.7813 80.056 41.2156 77.8206 43.3907C75.0075 46.1277 74.2993 49.4837 75.9203 53.1804C76.5325 54.5757 76.7593 56.0236 76.6598 57.5384C76.5425 59.3069 75.4946 60.5581 73.7429 60.7548C72.7978 60.8609 71.7968 60.8307 70.8662 60.6386C66.0456 59.6432 61.8082 57.4044 57.9719 54.3746C57.784 54.2263 57.5972 54.0767 57.4122 53.9254L59.5843 53.9089L63 53.8831L59.3114 50.3784C56.6946 47.8919 55.5574 46.8731 55.3972 46.8715C55.2729 46.8703 53.9641 46.7636 52.4885 46.6342L49.8056 46.3989L46.1343 42.789L42.4629 39.179L42.4614 38.2962C42.4587 36.6422 41.9826 35.4429 40.9158 34.402C39.6367 33.1539 37.7738 32.6582 36.0353 33.1036C34.4394 33.5125 33.0346 34.8399 32.4875 36.456C31.5957 39.0905 33.3047 42.1127 36.0821 42.8125C36.7033 42.9691 38.1325 42.9742 38.4759 42.8211C38.5827 42.7735 39.6686 43.7817 42.2851 46.3581L45.945 49.9618L46.1989 52.8047L46.4526 55.6477L50.189 59.3238L53.9254 63V59.5673V57.415C54.0764 57.5996 54.2256 57.7858 54.3735 57.973C57.4033 61.8105 59.6421 66.0479 60.6375 70.8673C60.8285 71.7968 60.8598 72.7989 60.7536 73.744C60.557 75.4958 59.3047 76.5448 57.5373 76.6609C56.0224 76.7615 54.5746 76.5336 53.1793 75.9214C49.4826 74.3004 46.1266 75.0087 43.3896 77.8217C41.2155 80.056 38.7812 80.4001 36.0185 79.6259C34.8529 79.2995 33.2009 79.3153 31.3479 79.333C29.1605 79.3538 26.6929 79.3773 24.4145 78.8439C22.884 78.4853 21.6719 78.0116 20.6564 77.5044C8.30053 70.2797 0 56.8726 0 41.5261C0 30.0562 4.63623 19.6699 12.138 12.138C19.6699 4.63623 30.0562 0 41.5261 0C56.8715 0 70.2786 8.30053 77.5044 20.6564C78.0105 21.6719 78.4853 22.884 78.8439 24.4145C79.3773 26.6929 79.3538 29.1608 79.333 31.3484ZM40.9179 13.1874C52.6971 14.9593 61.5465 24.1538 62.6936 35.8124C62.815 37.0459 62.7403 40.0029 62.5535 41.364C62.4698 41.9732 62.2843 42.9879 62.1412 43.6187C61.7227 45.4636 60.6638 48.3932 60.4154 48.3932C60.3582 48.3932 59.4318 47.533 58.3566 46.4815L56.4017 44.5699L56.7 43.5405C57.4024 41.1155 57.5592 40.0556 57.5553 37.7565C57.553 36.4063 57.5017 35.5569 57.3805 34.8645C56.8059 31.5799 55.4892 28.5614 53.4893 25.9434C52.7124 24.9267 50.6067 22.8521 49.5896 22.1014C47.1955 20.3346 44.1994 18.9807 41.5159 18.453C34.6938 17.1114 27.948 19.0951 23.0925 23.8706C19.9214 26.9896 18.0078 30.6966 17.2909 35.1096C17.0637 36.5074 17.0637 39.3977 17.2909 40.7956C18.0078 45.2086 19.9214 48.9155 23.0925 52.0345C26.2681 55.1579 30.2619 57.1047 34.7381 57.7113C35.6465 57.8345 36.3896 57.8618 37.828 57.825C39.8032 57.7743 40.8873 57.6403 42.8428 57.205C43.4836 57.0625 44.0613 56.9404 44.1268 56.9339C44.2475 56.922 47.7472 60.5397 47.7437 60.673C47.7411 60.7712 46.3936 61.3499 45.3534 61.6994C44.1705 62.0969 42.3344 62.5271 40.9735 62.7255C39.5057 62.9395 35.4715 62.9658 34.14 62.7699C29.3992 62.0726 25.3261 60.3807 21.6309 57.5737C20.3857 56.6279 18.1115 54.3412 17.1315 53.0498C14.4584 49.5275 12.9364 46.0055 12.1961 41.6288C11.9346 40.0834 11.9346 35.8217 12.1961 34.2763C12.9364 29.8996 14.4584 26.3777 17.1315 22.8553C18.1115 21.5639 20.3857 19.2773 21.6309 18.3314C25.3262 15.5243 29.4091 13.8285 34.14 13.1358C35.5235 12.9332 39.4256 12.963 40.9179 13.1874ZM44.0697 24.478C48.7846 26.8072 51.9274 31.2405 52.5347 36.4185C52.6423 37.3365 52.5656 39.447 52.3856 40.5197C52.1424 41.9685 51.4513 44.1612 51.2243 44.2042C51.1475 44.2187 50.2123 43.3712 49.1458 42.3208L47.207 40.411L47.3278 39.4513C47.4989 38.0913 47.4765 37.0981 47.25 36.0073C46.4808 32.3025 43.7152 29.405 39.9194 28.3273C39.2169 28.1278 38.9138 28.1019 37.3296 28.1055C35.6634 28.1093 35.4715 28.1289 34.6384 28.379C32.3679 29.061 30.6227 30.2457 29.2729 32.0215C26.5941 35.546 26.5941 40.3591 29.2729 43.8836C30.6243 45.6616 32.3788 46.8517 34.6384 47.5233C35.4693 47.7702 35.6714 47.7904 37.3795 47.7975C38.3936 47.8016 39.3804 47.7724 39.5723 47.7325C39.9171 47.6608 39.9436 47.6806 41.8399 49.4285C42.8952 50.4012 43.7586 51.2558 43.7586 51.3276C43.7586 51.5809 41.474 52.4251 39.971 52.7271C38.6457 52.9934 35.7638 52.9656 34.3892 52.6733C27.9383 51.3013 23.2047 46.3811 22.2369 40.0415C22.0984 39.1339 22.0984 36.7713 22.2369 35.8637C22.9808 30.9914 25.9767 26.8702 30.4022 24.6315C31.7271 23.9613 32.9104 23.5462 34.3892 23.2325C35.7808 22.9374 38.621 22.9103 40.0707 23.1783C41.2456 23.3955 43.096 23.9969 44.0697 24.478Z" fill="black"/>
<path d="M118.666 63.5002L99.512 20.4952H107.991L123.424 56.6072H120.862L136.295 20.4952H144.469L125.315 63.5002H118.666ZM148.111 63.5002V32.6952H155.736V63.5002H148.111ZM147.684 26.9002V19.4582H156.163V26.9002H147.684ZM163.955 63.5002V40.5642C163.955 39.2629 163.914 37.9412 163.833 36.5992C163.792 35.2572 163.691 33.9559 163.528 32.6952H170.909L171.763 41.1132H170.543C170.95 39.0799 171.621 37.3922 172.556 36.0502C173.532 34.7082 174.711 33.7119 176.094 33.0612C177.477 32.4106 178.981 32.0852 180.608 32.0852C181.34 32.0852 181.93 32.1259 182.377 32.2072C182.824 32.2479 183.272 32.3496 183.719 32.5122L183.658 39.2222C182.885 38.8969 182.214 38.6936 181.645 38.6122C181.116 38.5309 180.445 38.4902 179.632 38.4902C177.883 38.4902 176.399 38.8562 175.179 39.5882C174 40.3202 173.105 41.3369 172.495 42.6382C171.926 43.9396 171.641 45.4239 171.641 47.0912V63.5002H163.955ZM202.867 64.1102C199.207 64.1102 196.442 63.1546 194.571 61.2432C192.7 59.3319 191.765 56.4649 191.765 52.6422V38.4292H185.848V32.6952H191.765V24.8262L199.39 22.8742V32.6952H207.625V38.4292H199.39V52.1542C199.39 54.2689 199.797 55.7532 200.61 56.6072C201.423 57.4612 202.542 57.8882 203.965 57.8882C204.738 57.8882 205.388 57.8272 205.917 57.7052C206.486 57.5832 207.035 57.4206 207.564 57.2172V63.2562C206.873 63.5409 206.1 63.7442 205.246 63.8662C204.433 64.0289 203.64 64.1102 202.867 64.1102ZM223.906 64.1102C220.124 64.1102 217.298 63.0732 215.427 60.9992C213.557 58.9252 212.621 55.7532 212.621 51.4832V32.6952H220.246V51.4222C220.246 53.6996 220.714 55.3872 221.649 56.4852C222.585 57.5426 224.008 58.0712 225.919 58.0712C228.075 58.0712 229.823 57.3392 231.165 55.8752C232.548 54.4112 233.239 52.4796 233.239 50.0802V32.6952H240.864V63.5002H233.422V57.2172H234.276C233.382 59.4132 232.019 61.1212 230.189 62.3412C228.4 63.5206 226.306 64.1102 223.906 64.1102Z" fill="black"/>
<path opacity="0.5" d="M248.294 63.5002V55.0212H256.834V63.5002H248.294ZM264.279 63.5002V18.6042H271.904V38.8562H271.05C271.985 36.6602 273.429 34.9929 275.381 33.8542C277.333 32.6749 279.57 32.0852 282.091 32.0852C285.751 32.0852 288.476 33.1222 290.265 35.1962C292.054 37.2296 292.949 40.3406 292.949 44.5292V63.5002H285.324V44.8952C285.324 42.4959 284.856 40.7676 283.921 39.7102C283.026 38.6122 281.583 38.0632 279.59 38.0632C277.272 38.0632 275.401 38.7952 273.978 40.2592C272.595 41.6826 271.904 43.5939 271.904 45.9932V63.5002H264.279ZM312.136 64.1102C308.354 64.1102 305.527 63.0732 303.657 60.9992C301.786 58.9252 300.851 55.7532 300.851 51.4832V32.6952H308.476V51.4222C308.476 53.6996 308.943 55.3872 309.879 56.4852C310.814 57.5426 312.237 58.0712 314.149 58.0712C316.304 58.0712 318.053 57.3392 319.395 55.8752C320.777 54.4112 321.469 52.4796 321.469 50.0802V32.6952H329.094V63.5002H321.652V57.2172H322.506C321.611 59.4132 320.249 61.1212 318.419 62.3412C316.629 63.5206 314.535 64.1102 312.136 64.1102ZM337.372 63.5002V40.3812C337.372 39.1206 337.331 37.8396 337.25 36.5382C337.168 35.2369 337.046 33.9559 336.884 32.6952H344.265L344.875 38.7952H344.143C345.119 36.6399 346.562 34.9929 348.474 33.8542C350.385 32.6749 352.601 32.0852 355.123 32.0852C358.742 32.0852 361.467 33.1019 363.297 35.1352C365.127 37.1686 366.042 40.3406 366.042 44.6512V63.5002H358.417V45.0172C358.417 42.5366 357.929 40.7676 356.953 39.7102C356.017 38.6122 354.594 38.0632 352.683 38.0632C350.324 38.0632 348.453 38.7952 347.071 40.2592C345.688 41.7232 344.997 43.6752 344.997 46.1152V63.5002H337.372ZM387.303 64.1102C383.643 64.1102 380.877 63.1546 379.007 61.2432C377.136 59.3319 376.201 56.4649 376.201 52.6422V38.4292H370.284V32.6952H376.201V24.8262L383.826 22.8742V32.6952H392.061V38.4292H383.826V52.1542C383.826 54.2689 384.232 55.7532 385.046 56.6072C385.859 57.4612 386.977 57.8882 388.401 57.8882C389.173 57.8882 389.824 57.8272 390.353 57.7052C390.922 57.5832 391.471 57.4206 392 57.2172V63.2562C391.308 63.5409 390.536 63.7442 389.682 63.8662C388.868 64.0289 388.075 64.1102 387.303 64.1102ZM411.826 64.1102C406.661 64.1102 402.615 62.6869 399.687 59.8402C396.759 56.9936 395.295 53.0896 395.295 48.1282C395.295 44.9156 395.925 42.1096 397.186 39.7102C398.447 37.3109 400.195 35.4402 402.432 34.0982C404.709 32.7562 407.353 32.0852 410.362 32.0852C413.331 32.0852 415.811 32.7156 417.804 33.9762C419.797 35.2369 421.301 37.0059 422.318 39.2832C423.375 41.5606 423.904 44.2242 423.904 47.2742V49.2872H401.456V45.2612H418.475L417.438 46.1152C417.438 43.2686 416.828 41.0929 415.608 39.5882C414.429 38.0836 412.7 37.3312 410.423 37.3312C407.902 37.3312 405.95 38.2259 404.567 40.0152C403.225 41.8046 402.554 44.3056 402.554 47.5182V48.3112C402.554 51.6459 403.367 54.1469 404.994 55.8142C406.661 57.4409 409 58.2542 412.009 58.2542C413.758 58.2542 415.384 58.0306 416.889 57.5832C418.434 57.0952 419.898 56.3226 421.281 55.2652L423.538 60.3892C422.074 61.5686 420.325 62.4836 418.292 63.1342C416.259 63.7849 414.103 64.1102 411.826 64.1102ZM430.3 63.5002V40.5642C430.3 39.2629 430.259 37.9412 430.178 36.5992C430.137 35.2572 430.036 33.9559 429.873 32.6952H437.254L438.108 41.1132H436.888C437.295 39.0799 437.966 37.3922 438.901 36.0502C439.877 34.7082 441.056 33.7119 442.439 33.0612C443.822 32.4106 445.326 32.0852 446.953 32.0852C447.685 32.0852 448.275 32.1259 448.722 32.2072C449.169 32.2479 449.617 32.3496 450.064 32.5122L450.003 39.2222C449.23 38.8969 448.559 38.6936 447.99 38.6122C447.461 38.5309 446.79 38.4902 445.977 38.4902C444.228 38.4902 442.744 38.8562 441.524 39.5882C440.345 40.3202 439.45 41.3369 438.84 42.6382C438.271 43.9396 437.986 45.4239 437.986 47.0912V63.5002H430.3Z" fill="black"/>
</svg>
