<svg width="80" height="81" viewBox="0 0 80 81" fill="none" xmlns="http://www.w3.org/2000/svg">
<path d="M79.6259 36.518C78.9143 33.9775 79.8292 29.1223 78.8439 24.914C78.4853 23.3834 78.0105 22.1713 77.5044 21.1558C70.2786 8.79998 56.8715 0.499451 41.5261 0.499451C30.0562 0.499451 19.6699 5.13568 12.138 12.6374C4.63623 20.1694 0 30.5556 0 42.0256C0 57.3721 8.30053 70.7792 20.6564 78.0039C21.6719 78.5111 22.884 78.9847 24.4145 79.3433C28.6229 80.3287 33.477 79.4137 36.0185 80.1254C38.7812 80.8996 41.2156 80.5555 43.3896 78.3211C46.1266 75.5081 49.4826 74.7998 53.1793 76.4208C54.5746 77.033 56.0225 77.2609 57.5373 77.1604C59.3047 77.0442 60.557 75.9952 60.7536 74.2435C60.8598 73.2984 60.8285 72.2963 60.6375 71.3668C59.6421 66.5473 57.4033 62.3099 54.3735 58.4725C53.0028 56.7375 51.5247 55.0942 49.5563 54.0061C48.0224 53.1581 46.7131 53.5156 46.073 55.1366C45.6194 56.2839 45.4664 57.5631 45.2899 58.7987C45.2105 59.3528 45.0318 59.6097 44.4989 59.6924C40.5285 60.3057 36.7569 57.1989 36.6464 53.1972C36.6184 52.1929 36.6296 51.1863 36.6743 50.1831C36.7246 49.0503 36.2542 48.2203 35.4219 47.4796C33.6322 45.8876 31.8515 44.28 30.1444 42.6009C29.5255 41.9921 29.1167 41.5809 28.9111 41.2369L28.91 41.238C22.7142 35.1774 23.3945 23.8951 23.3945 23.8951C23.3945 23.8951 34.6779 23.2148 40.7374 29.4106L40.7363 29.4117C41.0804 29.6172 41.4926 30.0261 42.1003 30.645C43.7794 32.3532 45.387 34.1328 46.979 35.9225C47.7197 36.7548 48.5497 37.2251 49.6825 37.1748C50.6858 37.1302 51.6923 37.119 52.6967 37.1469C56.6983 37.2575 59.8052 41.0291 59.1918 44.9995C59.1092 45.5324 58.8522 45.7111 58.2981 45.7904C57.0625 45.968 55.7834 46.1211 54.6361 46.5736C53.015 47.2137 52.6576 48.523 53.5055 50.0569C54.5936 52.0253 56.2358 53.5033 57.9719 54.8741C61.8082 57.9038 66.0457 60.1426 70.8662 61.138C71.7968 61.3302 72.7978 61.3603 73.7429 61.2542C75.4946 61.0576 76.5425 59.8064 76.6598 58.0379C76.7593 56.523 76.5325 55.0752 75.9203 53.6798C74.2993 49.9831 75.0075 46.6272 77.8206 43.8901C80.056 41.715 80.399 39.2807 79.6259 36.518Z" fill="black"/>
<path d="M35.394 32.847C34.5472 32.847 33.7763 33.1676 33.1954 33.6949C32.6681 34.2758 32.3475 35.0478 32.3475 35.8935C32.3475 37.7022 33.8143 39.169 35.623 39.169C36.4698 39.169 37.2406 38.8484 37.8216 38.3211C38.3489 37.7402 38.6695 36.9682 38.6695 36.1225C38.6695 34.3138 37.2038 32.847 35.394 32.847Z" fill="black"/>
</svg>
