<svg width="451" height="81" viewBox="0 0 451 81" fill="none" xmlns="http://www.w3.org/2000/svg">
<path d="M79.6259 36.518C78.9143 33.9775 79.8292 29.1223 78.8439 24.914C78.4853 23.3834 78.0105 22.1713 77.5044 21.1558C70.2786 8.79998 56.8715 0.499451 41.5261 0.499451C30.0562 0.499451 19.6699 5.13568 12.138 12.6374C4.63623 20.1694 0 30.5556 0 42.0256C0 57.3721 8.30053 70.7792 20.6564 78.0039C21.6719 78.5111 22.884 78.9847 24.4145 79.3433C28.6229 80.3287 33.477 79.4137 36.0185 80.1254C38.7812 80.8996 41.2156 80.5555 43.3896 78.3211C46.1266 75.5081 49.4826 74.7998 53.1793 76.4208C54.5746 77.033 56.0225 77.2609 57.5373 77.1604C59.3047 77.0442 60.557 75.9952 60.7536 74.2435C60.8598 73.2984 60.8285 72.2963 60.6375 71.3668C59.6421 66.5473 57.4033 62.3099 54.3735 58.4725C53.0028 56.7375 51.5247 55.0942 49.5563 54.0061C48.0224 53.1581 46.7131 53.5156 46.073 55.1366C45.6194 56.2839 45.4664 57.5631 45.2899 58.7987C45.2105 59.3528 45.0318 59.6097 44.4989 59.6924C40.5285 60.3057 36.7569 57.1989 36.6464 53.1972C36.6184 52.1929 36.6296 51.1863 36.6743 50.1831C36.7246 49.0503 36.2542 48.2203 35.4219 47.4796C33.6322 45.8876 31.8515 44.28 30.1444 42.6009C29.5255 41.9921 29.1167 41.5809 28.9111 41.2369L28.91 41.238C22.7142 35.1774 23.3945 23.8951 23.3945 23.8951C23.3945 23.8951 34.6779 23.2148 40.7374 29.4106L40.7363 29.4117C41.0804 29.6172 41.4926 30.0261 42.1003 30.645C43.7794 32.3532 45.387 34.1328 46.979 35.9225C47.7197 36.7548 48.5497 37.2251 49.6825 37.1748C50.6858 37.1302 51.6923 37.119 52.6967 37.1469C56.6983 37.2575 59.8052 41.0291 59.1918 44.9995C59.1092 45.5324 58.8522 45.7111 58.2981 45.7904C57.0625 45.968 55.7834 46.1211 54.6361 46.5736C53.015 47.2137 52.6576 48.523 53.5055 50.0569C54.5936 52.0253 56.2358 53.5033 57.9719 54.8741C61.8082 57.9038 66.0457 60.1426 70.8662 61.138C71.7968 61.3302 72.7978 61.3603 73.7429 61.2542C75.4946 61.0576 76.5425 59.8064 76.6598 58.0379C76.7593 56.523 76.5325 55.0752 75.9203 53.6798C74.2993 49.9831 75.0075 46.6272 77.8206 43.8901C80.056 41.715 80.399 39.2807 79.6259 36.518Z" fill="black"/>
<path d="M35.394 32.847C34.5472 32.847 33.7763 33.1676 33.1954 33.6949C32.6681 34.2758 32.3475 35.0478 32.3475 35.8935C32.3475 37.7022 33.8143 39.169 35.623 39.169C36.4698 39.169 37.2406 38.8484 37.8216 38.3211C38.3489 37.7402 38.6695 36.9682 38.6695 36.1225C38.6695 34.3138 37.2038 32.847 35.394 32.847Z" fill="black"/>
<path d="M118.666 63.9997L99.512 20.9947H107.991L123.424 57.1067H120.862L136.295 20.9947H144.469L125.315 63.9997H118.666ZM148.111 63.9997V33.1947H155.736V63.9997H148.111ZM147.684 27.3997V19.9577H156.163V27.3997H147.684ZM163.955 63.9997V41.0637C163.955 39.7624 163.914 38.4407 163.833 37.0987C163.792 35.7567 163.691 34.4554 163.528 33.1947H170.909L171.763 41.6127H170.543C170.95 39.5794 171.621 37.8917 172.556 36.5497C173.532 35.2077 174.711 34.2114 176.094 33.5607C177.477 32.91 178.981 32.5847 180.608 32.5847C181.34 32.5847 181.93 32.6254 182.377 32.7067C182.824 32.7474 183.272 32.849 183.719 33.0117L183.658 39.7217C182.885 39.3964 182.214 39.193 181.645 39.1117C181.116 39.0304 180.445 38.9897 179.632 38.9897C177.883 38.9897 176.399 39.3557 175.179 40.0877C174 40.8197 173.105 41.8364 172.495 43.1377C171.926 44.439 171.641 45.9234 171.641 47.5907V63.9997H163.955ZM202.867 64.6097C199.207 64.6097 196.442 63.654 194.571 61.7427C192.7 59.8314 191.765 56.9644 191.765 53.1417V38.9287H185.848V33.1947H191.765V25.3257L199.39 23.3737V33.1947H207.625V38.9287H199.39V52.6537C199.39 54.7684 199.797 56.2527 200.61 57.1067C201.423 57.9607 202.542 58.3877 203.965 58.3877C204.738 58.3877 205.388 58.3267 205.917 58.2047C206.486 58.0827 207.035 57.92 207.564 57.7167V63.7557C206.873 64.0404 206.1 64.2437 205.246 64.3657C204.433 64.5284 203.64 64.6097 202.867 64.6097ZM223.906 64.6097C220.124 64.6097 217.298 63.5727 215.427 61.4987C213.557 59.4247 212.621 56.2527 212.621 51.9827V33.1947H220.246V51.9217C220.246 54.199 220.714 55.8867 221.649 56.9847C222.585 58.042 224.008 58.5707 225.919 58.5707C228.075 58.5707 229.823 57.8387 231.165 56.3747C232.548 54.9107 233.239 52.979 233.239 50.5797V33.1947H240.864V63.9997H233.422V57.7167H234.276C233.382 59.9127 232.019 61.6207 230.189 62.8407C228.4 64.02 226.306 64.6097 223.906 64.6097Z" fill="black"/>
<path opacity="0.5" d="M248.294 63.9997V55.5207H256.834V63.9997H248.294ZM264.279 63.9997V19.1037H271.904V39.3557H271.05C271.985 37.1597 273.429 35.4924 275.381 34.3537C277.333 33.1744 279.57 32.5847 282.091 32.5847C285.751 32.5847 288.476 33.6217 290.265 35.6957C292.054 37.729 292.949 40.84 292.949 45.0287V63.9997H285.324V45.3947C285.324 42.9954 284.856 41.267 283.921 40.2097C283.026 39.1117 281.583 38.5627 279.59 38.5627C277.272 38.5627 275.401 39.2947 273.978 40.7587C272.595 42.182 271.904 44.0934 271.904 46.4927V63.9997H264.279ZM312.136 64.6097C308.354 64.6097 305.527 63.5727 303.657 61.4987C301.786 59.4247 300.851 56.2527 300.851 51.9827V33.1947H308.476V51.9217C308.476 54.199 308.943 55.8867 309.879 56.9847C310.814 58.042 312.237 58.5707 314.149 58.5707C316.304 58.5707 318.053 57.8387 319.395 56.3747C320.777 54.9107 321.469 52.979 321.469 50.5797V33.1947H329.094V63.9997H321.652V57.7167H322.506C321.611 59.9127 320.249 61.6207 318.419 62.8407C316.629 64.02 314.535 64.6097 312.136 64.6097ZM337.372 63.9997V40.8807C337.372 39.62 337.331 38.339 337.25 37.0377C337.168 35.7364 337.046 34.4554 336.884 33.1947H344.265L344.875 39.2947H344.143C345.119 37.1394 346.562 35.4924 348.474 34.3537C350.385 33.1744 352.601 32.5847 355.123 32.5847C358.742 32.5847 361.467 33.6014 363.297 35.6347C365.127 37.668 366.042 40.84 366.042 45.1507V63.9997H358.417V45.5167C358.417 43.036 357.929 41.267 356.953 40.2097C356.017 39.1117 354.594 38.5627 352.683 38.5627C350.324 38.5627 348.453 39.2947 347.071 40.7587C345.688 42.2227 344.997 44.1747 344.997 46.6147V63.9997H337.372ZM387.303 64.6097C383.643 64.6097 380.877 63.654 379.007 61.7427C377.136 59.8314 376.201 56.9644 376.201 53.1417V38.9287H370.284V33.1947H376.201V25.3257L383.826 23.3737V33.1947H392.061V38.9287H383.826V52.6537C383.826 54.7684 384.232 56.2527 385.046 57.1067C385.859 57.9607 386.977 58.3877 388.401 58.3877C389.173 58.3877 389.824 58.3267 390.353 58.2047C390.922 58.0827 391.471 57.92 392 57.7167V63.7557C391.308 64.0404 390.536 64.2437 389.682 64.3657C388.868 64.5284 388.075 64.6097 387.303 64.6097ZM411.826 64.6097C406.661 64.6097 402.615 63.1864 399.687 60.3397C396.759 57.493 395.295 53.589 395.295 48.6277C395.295 45.415 395.925 42.609 397.186 40.2097C398.447 37.8104 400.195 35.9397 402.432 34.5977C404.709 33.2557 407.353 32.5847 410.362 32.5847C413.331 32.5847 415.811 33.215 417.804 34.4757C419.797 35.7364 421.301 37.5054 422.318 39.7827C423.375 42.06 423.904 44.7237 423.904 47.7737V49.7867H401.456V45.7607H418.475L417.438 46.6147C417.438 43.768 416.828 41.5924 415.608 40.0877C414.429 38.583 412.7 37.8307 410.423 37.8307C407.902 37.8307 405.95 38.7254 404.567 40.5147C403.225 42.304 402.554 44.805 402.554 48.0177V48.8107C402.554 52.1454 403.367 54.6464 404.994 56.3137C406.661 57.9404 409 58.7537 412.009 58.7537C413.758 58.7537 415.384 58.53 416.889 58.0827C418.434 57.5947 419.898 56.822 421.281 55.7647L423.538 60.8887C422.074 62.068 420.325 62.983 418.292 63.6337C416.259 64.2844 414.103 64.6097 411.826 64.6097ZM430.3 63.9997V41.0637C430.3 39.7624 430.259 38.4407 430.178 37.0987C430.137 35.7567 430.036 34.4554 429.873 33.1947H437.254L438.108 41.6127H436.888C437.295 39.5794 437.966 37.8917 438.901 36.5497C439.877 35.2077 441.056 34.2114 442.439 33.5607C443.822 32.91 445.326 32.5847 446.953 32.5847C447.685 32.5847 448.275 32.6254 448.722 32.7067C449.169 32.7474 449.617 32.849 450.064 33.0117L450.003 39.7217C449.23 39.3964 448.559 39.193 447.99 39.1117C447.461 39.0304 446.79 38.9897 445.977 38.9897C444.228 38.9897 442.744 39.3557 441.524 40.0877C440.345 40.8197 439.45 41.8364 438.84 43.1377C438.271 44.439 437.986 45.9234 437.986 47.5907V63.9997H430.3Z" fill="black"/>
</svg>
